<?xml version="1.0" standalone="no"?>
<!DOCTYPE svg PUBLIC "-//W3C//DTD SVG 20010904//EN"
 "http://www.w3.org/TR/2001/REC-SVG-20010904/DTD/svg10.dtd">
<svg version="1.0" xmlns="http://www.w3.org/2000/svg"
 width="48.000000pt" height="48.000000pt" viewBox="0 0 48.000000 48.000000"
 preserveAspectRatio="xMidYMid meet">

<g transform="translate(0.000000,48.000000) scale(0.100000,-0.100000)"
fill="#000000" stroke="none">
<path d="M180 461 c-128 -41 -191 -153 -160 -282 16 -65 86 -141 146 -158 45
-12 110 -13 139 -2 11 5 30 4 42 -2 27 -12 53 5 53 34 0 10 11 35 25 55 76
111 46 257 -66 327 -49 30 -133 43 -179 28z m123 -22 c78 -21 146 -111 147
-191 l0 -38 -100 0 -100 0 0 -70 c0 -40 -4 -70 -10 -70 -6 0 -10 30 -10 70 l0
69 -97 3 c-111 3 -114 6 -93 84 32 112 147 175 263 143z m-96 -253 c4 -4 2
-16 -5 -26 -7 -11 -8 -20 -3 -20 5 0 9 -11 9 -23 0 -22 -4 -24 -47 -22 -45 3
-46 4 -48 36 -1 19 4 37 10 41 8 5 7 8 -3 8 -13 0 -13 2 -1 9 16 10 78 8 88
-3z m78 4 c3 -5 1 -10 -4 -10 -6 0 -11 5 -11 10 0 6 2 10 4 10 3 0 8 -4 11
-10z m71 -3 c4 -3 7 -27 8 -52 l1 -46 -48 2 c-37 2 -47 6 -42 17 3 8 0 21 -6
28 -9 11 -9 14 0 14 7 0 9 5 6 10 -3 6 -2 10 4 10 5 0 12 -15 14 -32 3 -30 4
-29 5 8 1 22 4 43 7 46 7 6 43 3 51 -5z m28 -132 c3 -9 -1 -18 -10 -22 -19 -7
-39 11 -30 26 10 16 33 13 40 -4z"/>
<path d="M180 392 c0 -16 36 -42 58 -42 23 0 68 37 58 47 -3 3 -14 -4 -24 -17
-14 -18 -25 -22 -45 -16 -15 3 -27 13 -27 21 0 8 -4 15 -10 15 -5 0 -10 -4
-10 -8z"/>
<path d="M115 311 c-3 -9 0 -11 10 -7 8 3 15 1 15 -4 0 -6 -6 -10 -12 -11 -7
0 -4 -4 7 -9 18 -8 18 -9 -5 -10 -18 -2 -20 -4 -7 -7 9 -2 17 -7 17 -10 0 -3
-8 -12 -17 -20 -15 -12 -13 -12 12 0 25 13 32 13 52 0 15 -10 23 -11 23 -4 0
6 -7 11 -15 11 -21 0 -19 20 3 21 11 1 9 4 -8 9 -14 5 -18 8 -9 9 19 1 33 41
16 42 -64 4 -77 2 -82 -10z"/>
<path d="M277 317 c-3 -9 1 -18 9 -21 16 -6 18 2 5 22 -7 11 -9 11 -14 -1z"/>
<path d="M231 270 c-1 -28 3 -50 9 -50 5 0 10 23 10 50 0 28 -4 50 -8 50 -5 0
-10 -22 -11 -50z"/>
<path d="M307 300 c-3 -11 -11 -19 -19 -18 -13 3 -14 -1 -9 -39 2 -15 4 -14
11 5 5 12 17 22 27 21 16 0 16 -1 -2 -9 l-20 -9 20 0 c17 -1 17 -3 5 -11 -12
-7 -8 -10 15 -10 23 0 27 3 15 10 -12 8 -12 10 5 11 19 0 19 1 1 8 -18 7 -18
8 -3 14 9 3 17 16 17 27 0 29 -55 29 -63 0z"/>
<path d="M148 173 c6 -2 18 -2 25 0 6 3 1 5 -13 5 -14 0 -19 -2 -12 -5z"/>
<path d="M310 128 c0 -4 9 -8 20 -8 11 0 20 4 20 9 0 6 -9 9 -20 8 -11 -1 -20
-5 -20 -9z"/>
</g>
</svg>
