<?xml version="1.0" standalone="no"?>
<!DOCTYPE svg PUBLIC "-//W3C//DTD SVG 20010904//EN"
 "http://www.w3.org/TR/2001/REC-SVG-20010904/DTD/svg10.dtd">
<svg version="1.0" xmlns="http://www.w3.org/2000/svg"
 width="512.000000pt" height="512.000000pt" viewBox="0 0 512.000000 512.000000"
 preserveAspectRatio="xMidYMid meet">

<g transform="translate(0.000000,512.000000) scale(0.100000,-0.100000)"
fill="#000000" stroke="none">
<path d="M2335 5004 c-479 -50 -855 -181 -1216 -423 -593 -397 -984 -1024
-1075 -1721 -21 -160 -15 -545 10 -690 107 -609 380 -1088 851 -1491 265 -227
626 -409 1005 -508 187 -49 517 -83 714 -75 306 13 504 49 779 143 63 21 124
44 136 50 20 11 28 7 91 -52 127 -120 293 -149 450 -78 206 93 285 323 184
533 l-17 37 87 83 c232 217 477 588 590 893 29 80 89 293 104 375 6 30 16 80
21 110 6 30 16 126 22 213 24 348 -38 724 -174 1057 -146 357 -383 682 -682
940 -244 209 -522 368 -825 472 -269 92 -485 128 -795 133 -121 2 -238 1 -260
-1z m565 -230 c208 -32 429 -93 570 -156 196 -88 326 -161 465 -263 118 -87
280 -230 350 -311 28 -31 55 -62 60 -68 35 -38 126 -162 174 -240 211 -335
313 -660 347 -1103 6 -82 -12 -332 -25 -346 -4 -4 -491 -7 -1082 -6 -1245 2
-1119 2 -1124 -3 -2 -2 -5 -340 -7 -752 l-3 -748 -24 -19 c-32 -26 -67 -24
-98 7 l-26 26 4 746 4 747 -1100 3 c-605 2 -1102 6 -1104 8 -2 2 -6 95 -9 206
-6 264 14 434 82 681 20 74 99 274 141 357 294 585 844 1024 1480 1184 126 32
272 56 395 66 128 11 413 2 530 -16z m-1406 -2660 c9 -8 16 -24 16 -35 0 -18
9 -19 174 -19 173 0 175 0 178 22 4 31 53 54 87 42 14 -5 32 -22 39 -37 l13
-27 115 0 c134 0 154 -7 154 -54 0 -59 -13 -62 -211 -65 -55 -1 -57 -2 -63
-33 -5 -27 -3 -36 14 -47 13 -9 20 -24 20 -46 0 -29 3 -33 36 -38 63 -10 69 0
28 50 -35 42 -36 45 -19 64 31 33 77 25 119 -21 19 -22 39 -52 42 -67 4 -16
13 -37 20 -48 19 -27 17 -49 -5 -69 -14 -13 -41 -17 -117 -19 l-99 -2 4 -95
c4 -120 13 -182 26 -186 9 -3 25 29 69 139 8 20 22 40 31 43 24 10 63 -4 76
-27 15 -28 -21 -121 -92 -239 -51 -84 -51 -85 -37 -125 7 -22 19 -40 25 -40 7
0 23 20 35 45 26 51 57 63 89 34 26 -23 24 -63 -7 -129 -53 -111 -126 -136
-193 -67 -20 20 -41 46 -48 57 -10 19 -14 17 -60 -27 -30 -30 -58 -48 -73 -48
-26 0 -60 26 -60 47 0 16 13 14 -149 19 -106 2 -138 6 -150 19 -14 13 -16 51
-16 261 0 232 1 246 19 260 26 19 335 21 354 2 16 -16 15 -63 -1 -76 -6 -6
-28 -12 -47 -14 -29 -2 -35 -7 -35 -27 0 -19 7 -27 32 -33 52 -13 67 -46 59
-125 -8 -78 -16 -91 -59 -95 -28 -3 -32 -7 -35 -35 -2 -18 0 -33 5 -34 98 -9
111 -7 138 21 22 23 26 35 22 62 -25 174 -38 265 -44 333 l-8 80 -213 3 c-165
2 -213 0 -216 -10 -3 -7 -7 -85 -10 -173 -3 -88 -7 -171 -10 -185 -2 -14 -7
-47 -11 -75 -3 -27 -17 -87 -31 -132 -32 -108 -71 -138 -125 -94 -22 18 -23
22 -12 67 23 99 41 180 47 217 7 38 7 38 -21 35 -27 -3 -28 -6 -34 -68 -6 -76
-30 -130 -71 -165 -34 -29 -69 -32 -92 -9 -20 20 -20 38 1 55 27 23 53 91 53
140 0 39 -4 48 -25 59 -17 9 -25 22 -25 40 0 43 16 50 122 50 97 0 98 0 104
26 9 36 -5 45 -76 47 -92 3 -100 17 -100 166 1 81 5 121 14 134 16 20 78 23
94 4 6 -7 12 -53 14 -102 3 -79 5 -90 22 -93 25 -5 35 14 29 54 -7 41 12 91
41 107 15 8 98 13 276 14 l255 2 3 38 c2 33 -1 41 -22 52 -16 9 -26 24 -28 43
l-3 30 -170 0 -170 1 -3 -29 c-5 -59 -12 -72 -42 -83 -32 -11 -72 -2 -85 19
-4 7 -10 29 -12 49 -3 20 -7 38 -10 41 -3 3 -54 5 -113 6 -123 1 -140 8 -140
60 0 47 20 54 149 54 110 0 111 0 117 25 3 14 14 30 23 35 25 15 78 12 95 -6z
m1936 -20 c17 -15 44 -46 61 -70 28 -42 32 -44 79 -44 47 0 49 1 100 64 28 36
59 68 69 71 21 6 72 -11 83 -28 14 -22 8 -61 -14 -84 l-21 -23 69 0 c89 0 116
-16 112 -68 -5 -55 -26 -61 -194 -57 -139 5 -144 4 -159 -17 -8 -13 -15 -25
-15 -29 0 -4 58 -9 129 -10 121 -4 131 -6 155 -28 l26 -24 0 -263 0 -263 -26
-20 c-26 -20 -38 -21 -331 -21 l-305 0 -29 29 -29 29 0 242 c0 268 4 289 61
309 18 6 69 11 115 11 73 0 85 2 94 20 6 11 8 25 5 30 -4 6 -65 10 -144 10
-149 0 -161 4 -161 53 0 60 12 67 111 67 l91 0 -31 42 c-35 48 -37 60 -15 82
24 25 78 20 114 -10z m-401 -30 c83 -45 111 -71 111 -103 0 -29 -36 -71 -61
-71 -20 0 -177 96 -196 120 -18 23 -16 38 12 65 33 33 57 31 134 -11z m-55
-235 c123 -76 154 -114 130 -160 -28 -56 -60 -52 -164 22 -102 72 -123 94
-114 123 16 54 74 60 148 15z m63 -255 c51 -10 57 -32 54 -211 -2 -160 -2
-163 22 -187 44 -44 103 -50 493 -50 291 -1 364 -4 377 -15 22 -18 22 -79 0
-103 -15 -17 -39 -18 -347 -18 -363 1 -447 9 -536 54 -28 14 -56 26 -61 26 -6
0 -34 -18 -64 -40 -73 -54 -98 -51 -139 12 -25 38 -14 57 57 103 l62 41 3 132
3 132 -53 0 c-72 0 -100 20 -96 68 2 27 9 40 28 49 26 13 145 17 197 7z m1017
-861 c22 -16 54 -48 71 -72 27 -39 30 -50 30 -121 0 -71 -3 -82 -30 -121 -17
-24 -50 -57 -74 -74 -40 -28 -49 -30 -129 -30 -80 0 -91 2 -132 30 -126 86
-145 251 -40 356 81 81 214 95 304 32z"/>
<path d="M2311 4639 c-42 -17 -50 -38 -51 -131 0 -82 1 -88 26 -107 15 -12 39
-21 54 -21 15 0 39 9 54 21 25 19 26 25 26 110 0 76 -3 92 -20 109 -11 11 -24
20 -29 20 -5 0 -15 2 -23 4 -7 3 -24 0 -37 -5z"/>
<path d="M2691 4616 c-27 -29 -40 -150 -20 -188 29 -54 93 -65 134 -23 22 22
25 32 25 105 0 73 -3 83 -25 105 -32 33 -83 34 -114 1z"/>
<path d="M1931 4314 c-21 -15 -23 -22 -19 -93 9 -186 171 -380 381 -456 187
-68 435 -48 603 50 134 78 258 259 271 399 5 61 4 67 -18 85 -27 23 -77 27
-102 8 -11 -8 -25 -46 -37 -105 -21 -98 -37 -129 -104 -200 -170 -179 -484
-199 -689 -44 -97 75 -157 184 -157 286 0 70 -73 109 -129 70z"/>
<path d="M1273 3505 c-13 -9 -23 -23 -23 -31 0 -26 -57 -138 -103 -202 -44
-62 -48 -79 -24 -109 5 -7 29 -13 52 -13 37 0 48 5 74 35 17 20 40 54 51 76
19 36 25 40 52 37 29 -3 33 -8 56 -72 27 -73 51 -94 96 -82 40 10 50 39 32 93
-9 26 -16 50 -16 55 0 4 34 8 75 8 82 0 115 18 115 63 0 49 -9 52 -177 57
l-158 5 -3 32 c-5 51 -58 77 -99 48z"/>
<path d="M1804 3513 c-7 -4 -24 -44 -39 -88 -14 -44 -44 -110 -66 -146 -59
-98 -51 -129 32 -129 42 0 48 3 72 38 14 20 33 54 43 75 14 30 23 37 45 37 24
0 33 -9 64 -65 20 -36 44 -69 53 -74 9 -5 15 -12 12 -14 -16 -16 -439 -47
-639 -47 -107 0 -141 -3 -159 -16 -28 -20 -29 -67 -1 -95 20 -20 27 -20 210
-13 l189 7 0 -55 c0 -30 -5 -59 -12 -66 -9 -9 -76 -12 -238 -12 -207 0 -228
-2 -243 -18 -21 -23 -22 -66 -1 -86 13 -13 46 -16 209 -16 107 0 196 -4 199
-9 10 -15 -74 -80 -158 -122 -44 -22 -85 -43 -90 -48 -6 -4 -44 -21 -83 -36
-90 -35 -111 -55 -95 -90 25 -54 94 -56 217 -4 65 27 213 111 225 128 3 4 33
29 67 55 75 58 82 57 176 -19 129 -106 290 -192 378 -202 43 -5 53 -3 74 17
27 26 33 61 12 79 -8 6 -43 22 -80 36 -166 62 -367 186 -335 206 7 5 98 9 203
8 184 -1 190 0 207 21 24 30 23 66 -4 84 -19 13 -60 16 -245 16 -252 0 -243
-3 -243 82 0 56 13 68 72 68 89 0 323 31 346 46 14 9 22 24 22 43 0 43 -27 61
-96 62 -50 0 -56 2 -36 11 31 15 38 53 18 94 -9 19 -16 37 -16 39 0 3 36 5 80
5 89 0 120 17 120 64 0 51 -17 56 -196 56 l-164 0 0 28 c0 16 -6 36 -13 45
-13 19 -75 32 -93 20z"/>
<path d="M2990 3491 c-5 -11 -10 -54 -10 -95 l0 -76 -61 0 c-68 0 -88 -14 -89
-61 0 -45 22 -54 143 -56 60 -1 112 -4 114 -7 10 -10 -107 -173 -186 -259 -45
-48 -81 -96 -81 -107 0 -24 37 -60 63 -60 21 0 55 17 77 38 13 14 16 -7 20
-197 5 -196 7 -214 24 -227 27 -19 52 -18 76 6 19 19 20 33 20 220 0 110 3
200 6 200 3 0 26 -23 52 -51 41 -45 50 -50 77 -46 25 4 33 1 41 -16 8 -21 18
-22 144 -27 l135 -5 0 -65 0 -65 -150 -5 c-82 -3 -156 -9 -162 -13 -21 -14
-16 -85 6 -97 13 -6 146 -10 365 -10 333 0 347 1 366 20 49 49 7 104 -77 100
-26 -2 -87 -2 -135 -1 l-88 1 0 70 0 70 133 0 c143 0 157 5 157 50 0 45 -14
50 -157 50 l-133 0 0 44 0 44 111 4 c158 4 149 -15 149 304 0 238 -1 255 -19
273 -28 28 -77 32 -343 29 -308 -4 -282 18 -286 -238 l-3 -190 -39 6 c-38 6
-39 5 -71 -45 -31 -52 -44 -58 -62 -29 -8 11 1 34 36 89 59 95 77 139 77 187
0 48 -16 63 -75 70 l-45 5 0 74 c0 98 -9 113 -65 113 -34 0 -47 -5 -55 -19z
m570 -206 l0 -65 -70 0 -70 0 0 58 c0 32 3 62 7 65 3 4 35 7 70 7 l63 0 0 -65z
m255 0 l0 -60 -67 -3 -68 -3 0 66 0 66 68 -3 67 -3 0 -60z m-255 -244 c0 -68
-1 -68 -86 -63 l-54 4 0 59 0 59 70 0 70 0 0 -59z m260 5 c0 -31 -5 -58 -12
-63 -11 -8 -61 -10 -115 -4 -9 1 -13 20 -13 61 l0 60 70 0 70 0 0 -54z m-521
-129 c17 -43 39 -52 150 -57 l106 -5 0 -40 0 -40 -135 -2 -135 -3 -33 45 -34
44 29 40 c32 47 40 50 52 18z"/>
<path d="M2533 3490 c-12 -5 -26 -18 -32 -28 -7 -13 -11 -217 -11 -596 l0
-576 65 0 65 0 0 589 c0 459 -3 591 -12 599 -21 16 -52 21 -75 12z"/>
<path d="M1620 1490 c0 -28 3 -30 35 -30 32 0 35 2 35 30 0 28 -3 30 -35 30
-32 0 -35 -2 -35 -30z"/>
<path d="M1623 1363 c-3 -7 -3 -20 1 -28 8 -22 138 -21 156 0 21 26 -2 36 -80
38 -50 1 -74 -2 -77 -10z"/>
<path d="M1627 1234 c-4 -4 -7 -20 -7 -35 0 -22 5 -27 31 -31 34 -5 43 6 37
44 -2 16 -11 24 -28 26 -14 2 -29 0 -33 -4z"/>
<path d="M3334 1665 c-4 -8 -4 -22 0 -30 4 -13 39 -15 226 -15 205 0 220 1
220 18 0 39 -17 42 -232 42 -176 0 -210 -2 -214 -15z"/>
<path d="M3476 1512 c-3 -5 48 -42 112 -82 64 -40 118 -74 120 -75 1 -1 0 -10
-4 -19 -9 -22 -28 -20 -74 9 -22 14 -41 25 -44 25 -2 0 -58 32 -125 70 -66 39
-123 70 -126 70 -3 0 -5 -47 -5 -104 0 -85 3 -105 16 -110 9 -3 82 -6 163 -6
81 0 151 -3 154 -7 4 -3 0 -15 -10 -25 -9 -10 -13 -21 -9 -25 4 -5 20 8 36 27
l28 34 50 -27 c58 -31 62 -32 62 -12 0 8 5 15 10 15 19 0 10 15 -20 32 l-30
17 0 96 0 95 -134 0 c-74 0 -141 3 -149 6 -8 3 -17 1 -21 -4z"/>
</g>
</svg>
